<svg width="31" height="32" viewBox="0 0 31 32" fill="none" xmlns="http://www.w3.org/2000/svg">
<path d="M1.96294 0.10202C0.69667 0.479836 -0.202283 2.00104 0.039371 3.34329C0.136033 3.90007 0.561344 4.63581 0.986654 5.02357C1.66329 5.61018 1.9436 5.6599 4.90145 5.6599C7.38565 5.6599 7.54997 5.66984 7.48231 5.82892C7.06667 6.87289 7.03767 7.77766 7.39532 8.5134L7.59831 8.92105L6.4287 8.96082C5.41375 8.99065 5.2011 9.02047 4.78545 9.23921C3.20987 10.0644 2.77489 12.2319 3.9155 13.604L4.26348 14.0116L3.9155 14.4193C3.49986 14.9164 3.27753 15.5627 3.27753 16.2487C3.27753 16.9347 3.49986 17.581 3.9155 18.0781L4.26348 18.4858L3.9155 18.8934C3.06488 19.9274 3.06488 21.5182 3.9155 22.5523L4.26348 22.9599L3.9155 23.3676C2.76523 24.7595 3.21954 26.9469 4.84345 27.7721L5.34609 28.0306H9.19322H13.05L13.746 28.657C14.6353 29.4524 15.1282 29.8004 16.0852 30.2975C17.7091 31.1327 19.304 31.4707 21.1503 31.3812C25.8577 31.1426 29.6661 27.782 30.7391 22.9102C30.8261 22.5324 30.8647 21.7469 30.8647 20.7725C30.8551 19.4402 30.8164 19.0923 30.5941 18.2372C30.1398 16.4575 29.1442 14.6778 27.8972 13.3852C26.8436 12.3015 25.3067 11.3172 23.9824 10.8797C23.5281 10.7206 23.1898 10.4423 23.1898 10.2136C23.1898 10.1639 23.6828 10.134 24.2821 10.134C25.5677 10.134 26.0897 9.94513 26.7276 9.21932C27.2883 8.59295 27.4816 8.02622 27.4236 7.11151C27.3656 6.24651 27.0949 5.67978 26.4666 5.123C25.7707 4.50656 25.5 4.46679 22.5422 4.46679C21.0923 4.46679 19.9033 4.44691 19.9033 4.41708C19.9033 4.38725 19.9613 4.258 20.0386 4.13869C20.2513 3.7907 20.4156 2.90582 20.3383 2.49817C20.1546 1.4542 19.4393 0.529549 18.5694 0.191502C18.0764 0.00259399 17.8251 -0.00734901 10.1598 0.00259399C5.7424 0.00259399 2.12726 0.0523071 1.96294 0.10202ZM18.3857 1.47409C19.4587 2.16012 19.3137 3.85036 18.1441 4.30771C17.7671 4.45685 16.9358 4.46679 9.97618 4.44691C2.29159 4.41708 2.22392 4.41708 1.95327 4.20829C1.10265 3.56202 0.986654 2.3192 1.71162 1.65306C2.20459 1.18576 2.19492 1.1957 10.3338 1.21558L18.0184 1.23547L18.3857 1.47409ZM25.1327 5.76926C25.587 5.92834 26.0703 6.42547 26.2057 6.86294C26.4183 7.59869 26.0607 8.43386 25.384 8.74208C24.9974 8.93099 24.6591 8.94093 17.3031 8.94093C9.83119 8.94093 9.60887 8.93099 9.23189 8.74208C8.54559 8.40404 8.19761 7.61858 8.39093 6.88283C8.50692 6.44536 8.98057 5.93829 9.41554 5.77921C9.84085 5.63007 24.6881 5.62013 25.1327 5.76926ZM21.2083 10.2335C21.3339 10.2931 21.0633 10.3229 20.435 10.3229C18.1248 10.3428 15.8532 11.2277 14.036 12.8086L13.3303 13.4151H9.5412C5.96473 13.4151 5.73274 13.4051 5.36542 13.2162C4.67913 12.8782 4.33114 12.0927 4.52447 11.357C4.64046 10.9195 5.1141 10.4124 5.54908 10.2533C5.90673 10.1241 20.9183 10.1042 21.2083 10.2335ZM22.6582 11.7746C25.8383 12.5302 28.3129 14.9164 29.3278 18.1875C29.6758 19.3408 29.7725 21.4188 29.5308 22.6616C28.7285 26.7082 25.5677 29.6612 21.5369 30.1185C19.5167 30.3572 17.2355 29.7507 15.4859 28.5078C14.065 27.5136 12.7697 25.7935 12.1801 24.1331C11.7354 22.9102 11.6484 22.3534 11.6484 20.872C11.6484 19.6888 11.6871 19.2812 11.8707 18.5852C12.5474 16.0001 14.1713 13.8724 16.4428 12.6296C17.2161 12.2021 18.4727 11.7746 19.3717 11.6254C20.1546 11.5061 21.8366 11.5856 22.6582 11.7746ZM12.2671 14.6778C12.2671 14.7275 12.1801 14.8866 12.0641 15.0556C11.7548 15.5229 11.2521 16.5867 11.0105 17.2628L10.7881 17.8892H8.27494C5.95506 17.8892 5.72307 17.8693 5.36542 17.6904C4.67913 17.3523 4.33114 16.5669 4.52447 15.8311C4.64046 15.3936 5.1141 14.8866 5.54908 14.7275C5.8874 14.6082 12.2671 14.5684 12.2671 14.6778ZM10.4788 19.4402C10.4015 19.8877 10.4015 22.1347 10.4788 22.2639C10.5175 22.3236 9.67653 22.3634 8.14928 22.3634C5.95506 22.3634 5.72307 22.3435 5.36542 22.1645C4.67913 21.8265 4.33114 21.041 4.52447 20.3053C4.64046 19.8678 5.1141 19.3607 5.54908 19.2016C5.71341 19.142 6.82501 19.0923 8.19761 19.0923L10.5465 19.0823L10.4788 19.4402ZM10.9621 24.322C11.2328 25.1174 11.6194 25.9526 11.9867 26.5094L12.1897 26.8375H8.9709C5.95506 26.8375 5.73274 26.8276 5.36542 26.6386C4.67913 26.3006 4.33114 25.5151 4.52447 24.7794C4.64046 24.3419 5.1141 23.8349 5.54908 23.6758C5.71341 23.6161 6.85401 23.5664 8.26527 23.5664L10.6915 23.5565L10.9621 24.322Z" fill="black"/>
<path d="M20.7054 13.2209C20.367 13.6087 20.6184 14.2351 21.1113 14.2351C21.643 14.2351 21.9426 13.728 21.6526 13.2806C21.469 12.9823 20.9373 12.9525 20.7054 13.2209Z" fill="black"/>
<path d="M22.957 13.9369C22.8507 14.0462 22.7637 14.2451 22.7637 14.3843C22.7637 14.6328 22.8313 14.7024 23.7496 15.3089C25.7215 16.6213 26.8235 18.6894 26.8235 21.0955C26.8235 22.1395 26.6011 23.263 26.2532 23.9689C26.1372 24.1876 26.0502 24.476 26.0502 24.6052C26.0502 25.1023 26.7268 25.3608 27.0458 24.993C27.2681 24.7345 27.6451 23.8396 27.8481 23.0343C27.9737 22.5272 28.0221 21.9903 28.0221 21.0458C28.0221 19.4749 27.8867 18.8783 27.1908 17.4168C26.7558 16.512 26.5721 16.2535 25.8085 15.468C24.9289 14.5533 23.7786 13.738 23.363 13.738C23.247 13.738 23.0633 13.8275 22.957 13.9369Z" fill="black"/>
<path d="M19.8928 16.0745C19.7768 16.164 19.6512 16.3827 19.6125 16.5716C19.5642 16.8401 19.4868 16.9295 19.2355 17.019C18.8489 17.1483 18.1626 17.7448 17.9789 18.1127C17.5923 18.8783 17.6406 19.8328 18.0853 20.5287C18.5202 21.2048 19.1679 21.523 20.5598 21.7417C20.7628 21.7716 21.0431 21.9207 21.2074 22.0798C21.4587 22.3184 21.5071 22.4476 21.5071 22.8056C21.5071 23.5513 21.0238 23.9788 20.2021 23.9788C19.4772 23.9788 18.8972 23.4817 18.8972 22.8553C18.8972 22.5272 18.4622 22.1593 18.1819 22.2488C17.6696 22.4079 17.5633 22.9448 17.8919 23.7601C18.0756 24.2472 18.7619 24.9134 19.2355 25.0725C19.4772 25.152 19.5738 25.2614 19.6222 25.4801C19.7092 25.8679 19.9122 26.0667 20.2505 26.0667C20.5501 26.0667 20.8304 25.7685 20.8401 25.4205C20.8401 25.2813 20.9948 25.1421 21.4007 24.9432C22.87 24.2373 23.1987 22.5272 22.116 21.2943C21.6521 20.7574 21.1881 20.5287 20.3761 20.4393C19.7575 20.3697 19.5352 20.2802 19.2162 19.972C18.7716 19.5544 18.8489 18.6993 19.3515 18.3513C20.2408 17.7548 21.3814 18.1823 21.5361 19.1666C21.5747 19.3953 21.6714 19.6339 21.7487 19.7035C21.9614 19.8825 22.3577 19.8526 22.58 19.6438C23.044 19.2163 22.5317 17.8443 21.7197 17.3074C21.4684 17.1483 21.1688 16.9892 21.0528 16.9594C20.8884 16.9097 20.8304 16.8301 20.8304 16.6114C20.8304 16.2932 20.5308 15.9253 20.2698 15.9253C20.1731 15.9253 20.0088 15.9949 19.8928 16.0745Z" fill="black"/>
<path d="M13.6002 17.0289C13.3198 17.1383 12.8849 18.0829 12.6142 19.1566C12.3822 20.0714 12.3436 21.5826 12.5176 22.5769C12.9139 24.8338 14.2961 26.8522 16.297 28.0652C16.877 28.4231 17.022 28.4728 17.2346 28.3933C17.5536 28.2839 17.7469 27.9061 17.6503 27.6177C17.602 27.5084 17.254 27.2101 16.8577 26.9615C16.0167 26.4445 15.0211 25.4304 14.5571 24.6449C13.4455 22.7161 13.3005 20.3199 14.1801 18.2618C14.4508 17.6454 14.4605 17.546 14.3445 17.3272C14.1801 17.0289 13.8901 16.9196 13.6002 17.0289Z" fill="black"/>
<path d="M18.8685 28.1347C18.5108 28.5324 18.7815 29.1489 19.3131 29.1489C19.7868 29.1489 20.0768 28.602 19.8254 28.2043C19.6321 27.8961 19.1005 27.8663 18.8685 28.1347Z" fill="black"/>
</svg>
