<svg width="18" height="21" viewBox="0 0 18 21" fill="none" xmlns="http://www.w3.org/2000/svg">
<path d="M13.2379 1.04351C13.0761 1.20101 13.0761 1.47968 13.2441 1.62508C13.3562 1.72806 13.4931 1.74018 14.3333 1.75835C14.8623 1.77047 15.2917 1.78258 15.2917 1.7947C15.2917 1.80682 11.0285 5.9505 10.8356 6.12618C10.8231 6.14436 10.4186 5.78088 9.95184 5.32653C9.32325 4.72072 9.04941 4.49658 8.93739 4.49658C8.82536 4.49658 7.82959 5.43557 4.63687 8.53728C0.865357 12.2084 0.479492 12.6022 0.479492 12.7779C0.479492 12.996 0.659977 13.1595 0.915145 13.1595C1.03339 13.1595 1.89225 12.3599 5.00406 9.33088L8.94361 5.50221L9.80247 6.33216C10.512 7.01066 10.6987 7.16211 10.848 7.16211C10.9974 7.16211 11.3833 6.81074 13.4993 4.75707L15.9763 2.34598V3.32132C15.9763 4.26031 15.9825 4.29666 16.1194 4.42388C16.2875 4.58139 16.4555 4.59351 16.6485 4.46023C16.7854 4.36936 16.7854 4.35724 16.7854 2.73975C16.7854 1.12226 16.7854 1.11014 16.6485 1.01927C16.5302 0.934462 16.2564 0.922345 14.937 0.922345C13.4433 0.922345 13.3562 0.928404 13.2379 1.04351Z" fill="black"/>
<path d="M14.8375 6.96216C14.8126 6.98033 14.7939 8.36762 14.7939 10.0396V13.0808L15.0927 13.1474C15.2545 13.1837 15.435 13.2322 15.4972 13.2504C15.5968 13.2928 15.603 13.1171 15.603 10.1063V6.91975H15.242C15.0429 6.91975 14.8562 6.93793 14.8375 6.96216Z" fill="black"/>
<path d="M11.5576 11.433C11.5576 12.7536 11.5763 13.8259 11.6074 13.8138C11.6323 13.8017 11.8128 13.7048 12.0119 13.5897L12.3667 13.3897L12.3542 11.227L12.3356 9.07037L11.9497 9.0522L11.5576 9.03402V11.433Z" fill="black"/>
<path d="M8.25879 14.674V17.9454H8.66332H9.06786V14.674V11.4027H8.66332H8.25879V14.674Z" fill="black"/>
<path d="M4.96045 15.1284V17.9454H5.36498H5.76952V15.1284V12.3114H5.36498H4.96045V15.1284Z" fill="black"/>
<path d="M13.5181 13.8865C13.1322 13.9652 12.597 14.1712 12.2858 14.3772C11.6386 14.7952 11.0411 15.613 10.8793 16.3097C10.7859 16.7095 10.7984 17.5031 10.9042 17.9151C11.1718 18.9086 11.9933 19.7688 13.0202 20.1323C13.5368 20.3141 14.6072 20.3322 15.1051 20.1626C16.549 19.6719 17.4079 18.5209 17.4079 17.0609C17.4079 16.1037 17.0718 15.3647 16.3312 14.6983C15.5781 14.0137 14.4765 13.6987 13.5181 13.8865ZM14.4828 14.3711C14.5637 14.4499 14.6072 14.5711 14.6072 14.7225C14.6072 14.9285 14.6384 14.9769 14.8375 15.1042C15.1736 15.3162 15.4101 15.6797 15.4537 16.0431C15.491 16.3097 15.4723 16.3763 15.3603 16.4854C15.1985 16.6429 14.9122 16.649 14.7753 16.5036C14.7255 16.449 14.6508 16.2855 14.6135 16.1461C14.489 15.71 14.0658 15.5585 13.7671 15.8554C13.4497 16.1583 13.6613 16.7338 14.0907 16.7338C14.8375 16.7338 15.4786 17.382 15.4786 18.1271C15.4786 18.5572 15.0865 19.1388 14.7255 19.2478C14.6384 19.2781 14.6072 19.3448 14.6072 19.4962C14.6072 19.7385 14.4268 19.9445 14.2152 19.9445C13.9911 19.9445 13.7982 19.7809 13.7982 19.581C13.7982 19.4356 13.7546 19.3811 13.5617 19.2842C13.0638 19.0358 12.6593 18.3815 12.7651 17.9817C12.8211 17.7576 13.0638 17.6182 13.2816 17.6849C13.4185 17.7333 13.4808 17.8121 13.5617 18.0605C13.6861 18.4361 13.8106 18.5451 14.1031 18.5512C14.4019 18.5512 14.6072 18.3513 14.6072 18.0665C14.6072 17.7697 14.4081 17.594 14.0098 17.5455C13.3252 17.4547 12.8709 17.0367 12.7651 16.3885C12.6841 15.8796 13.0202 15.2738 13.5119 15.0375C13.7733 14.9164 13.7982 14.8861 13.7982 14.6862C13.7982 14.5711 13.8417 14.4196 13.904 14.359C14.0347 14.2136 14.3272 14.2197 14.4828 14.3711Z" fill="black"/>
<path d="M1.66211 16.8852V17.9454H2.03553H2.40894V16.8852V15.8251H2.03553H1.66211V16.8852Z" fill="black"/>
</svg>
